<svg width="79" height="48" viewBox="0 0 79 48" fill="none" xmlns="http://www.w3.org/2000/svg">
<path d="M18.5455 35.8182V5.81818H23.6364V35.8182H18.5455ZM6.09091 23.3636V18.2727H36.0909V23.3636H6.09091Z" fill="black"/>
<path d="M52 32.9996C50.8954 32.9996 50 33.895 50 34.9996C50 36.1042 50.8954 36.9996 52 36.9996C53.1046 36.9996 54 36.1042 54 34.9996C54 33.895 53.1046 32.9996 52 32.9996ZM52 32.9996V25M52 34.9996L52.0142 35.0138M60 34.9996C60 39.418 56.4182 42.9996 52 42.9996C47.5817 42.9996 44 39.418 44 34.9996C44 32.9708 44.7553 31.1182 46 29.708V13C46 9.6863 48.6862 7 52 7C55.3138 7 58 9.6863 58 13V29.708C59.2448 31.1182 60 32.9708 60 34.9996Z" stroke="black" stroke-width="5" stroke-linecap="round" stroke-linejoin="round"/>
</svg>
